HIERARCHY
ROOT Pelvis
{
	OFFSET 0.000000 0.000000 0.000000
	CHANNELS 6 Xposition Yposition Zposition Zrotation Yrotation Xrotation 
	JOINT Left_hip
	{
		OFFSET 0.069463 -0.088608 -0.009542
		CHANNELS 3 Zrotation Yrotation Xrotation
		JOINT Left_knee
		{
			OFFSET 0.030639 -0.359740 -0.005288
			CHANNELS 3 Zrotation Yrotation Xrotation
			JOINT Left_ankle
			{
				OFFSET -0.011068 -0.376034 -0.042462
				CHANNELS 3 Zrotation Yrotation Xrotation
				JOINT Left_foot
				{
					OFFSET 0.023192 -0.053321 0.111332
					CHANNELS 3 Zrotation Yrotation Xrotation
					End Site
					{
						OFFSET 0.000000 0.000000 0.000000
					}
				}
			}
		}
	}
	JOINT Right_hip
	{
		OFFSET -0.067438 -0.088025 -0.006263
		CHANNELS 3 Zrotation Yrotation Xrotation
		JOINT Right_knee
		{
			OFFSET -0.035962 -0.366229 -0.008063
			CHANNELS 3 Zrotation Yrotation Xrotation
			JOINT Right_ankle
			{
				OFFSET 0.013608 -0.375719 -0.040481
				CHANNELS 3 Zrotation Yrotation Xrotation
				JOINT Right_foot
				{
					OFFSET -0.021034 -0.045527 0.114617
					CHANNELS 3 Zrotation Yrotation Xrotation
					End Site
					{
						OFFSET 0.000000 0.000000 0.000000
					}
				}
			}
		}
	}
	JOINT Spine1
	{
		OFFSET -0.002610 0.101823 -0.019986
		CHANNELS 3 Zrotation Yrotation Xrotation
		JOINT Spine2
		{
			OFFSET 0.004114 0.128714 -0.000938
			CHANNELS 3 Zrotation Yrotation Xrotation
			JOINT Spine3
			{
				OFFSET 0.002191 0.048470 0.027684
				CHANNELS 3 Zrotation Yrotation Xrotation
				JOINT Neck
				{
					OFFSET -0.002856 0.198873 -0.044022
					CHANNELS 3 Zrotation Yrotation Xrotation
					JOINT Head
					{
						OFFSET 0.002981 0.062960 0.049860
						CHANNELS 3 Zrotation Yrotation Xrotation
						End Site
						{
							OFFSET 0.000000 0.000000 0.000000
						}
					}
				}
				JOINT Left_collar
				{
					OFFSET 0.073708 0.112550 -0.033440
					CHANNELS 3 Zrotation Yrotation Xrotation
					JOINT Left_shoulder
					{
						OFFSET 0.083291 0.030786 -0.008013
						CHANNELS 3 Zrotation Yrotation Xrotation
						JOINT Left_elbow
						{
							OFFSET 0.245601 -0.011792 -0.027873
							CHANNELS 3 Zrotation Yrotation Xrotation
							JOINT Left_wrist
							{
								OFFSET 0.232258 0.008622 -0.000487
								CHANNELS 3 Zrotation Yrotation Xrotation
								JOINT Left_palm
								{
									OFFSET 0.077300 -0.009457 -0.012851
									CHANNELS 3 Zrotation Yrotation Xrotation
									End Site
									{
										OFFSET 0.000000 0.000000 0.000000
									}
								}
							}
						}
					}
				}
				JOINT Right_collar
				{
					OFFSET -0.075339 0.110574 -0.037874
					CHANNELS 3 Zrotation Yrotation Xrotation
					JOINT Right_shoulder
					{
						OFFSET -0.086522 0.031207 -0.009986
						CHANNELS 3 Zrotation Yrotation Xrotation
						JOINT Right_elbow
						{
							OFFSET -0.237313 -0.011478 -0.019859
							CHANNELS 3 Zrotation Yrotation Xrotation
							JOINT Right_wrist
							{
								OFFSET -0.237599 0.007976 -0.003742
								CHANNELS 3 Zrotation Yrotation Xrotation
								JOINT Right_palm
								{
									OFFSET -0.076920 -0.006943 -0.009920
									CHANNELS 3 Zrotation Yrotation Xrotation
									End Site
									{
										OFFSET 0.000000 0.000000 0.000000
									}
								}
							}
						}
					}
				}
			}
		}
	}
}
MOTION
Frames: 9
Frame Time: 0.100000
0.272989 -0.007822 0.131089 174.497207 40.554673 -31.160709 4.297606 6.319586 4.276446 1.996460 -7.204151 2.406574 -11.410335 8.795861 6.802258 5.570955 5.856906 -2.820066 0.364117 -12.021966 27.603272 -1.542611 -6.298670 -4.328794 -1.975932 -5.576363 -6.359777 13.296101 -13.186792 0.924147 -0.830018 4.829859 19.806010 5.295057 -12.129272 7.179627 5.319435 -1.916656 -3.457899 -12.081810 -1.065031 8.897845 7.025130 -11.469384 -15.580965 12.591662 -19.720814 -10.780061 -7.878936 -25.557258 -6.431565 105.199652 -81.481151 -76.881717 -8.105006 -5.613854 1.830623 -5.020499 3.562894 -1.593726 2.896627 10.968837 -6.700727 55.321163 -5.378964 15.542668 -163.658651 70.166582 -129.580008 20.325731 3.388983 -18.726116 2.369949 7.376039 1.221198 
0.256848 -0.010629 0.133944 174.225365 38.508065 -29.574800 4.762617 6.948059 4.473213 2.077171 -6.376738 0.431006 -9.804027 8.150706 7.316674 1.814078 7.707316 -1.546416 0.569964 -11.904354 26.892133 -1.728617 -6.330878 -5.278352 -2.465337 -3.564832 -5.275029 17.115571 -13.141627 -0.962653 -1.266392 5.594491 21.421637 5.329781 -11.198767 5.420236 5.566070 -0.980378 -3.439586 -12.586103 -0.480547 10.016177 7.868786 -13.248214 -14.649984 17.755412 -19.244623 -15.733853 2.861620 -30.353454 -21.096907 95.552476 -62.437932 -71.342686 3.550363 -4.960675 5.931209 -1.735924 4.178581 3.844597 2.259870 12.095146 -7.430277 58.485515 -4.229528 16.636649 -162.940192 70.941166 -126.813729 15.491883 3.220002 -18.236233 0.072462 6.925984 4.593170 
0.229266 -0.014158 0.137287 175.766466 34.894664 -27.168657 3.488417 5.871153 4.089905 2.249121 -5.210721 2.160128 -6.272577 9.202553 4.905127 -1.281426 10.808894 -0.454434 -0.163277 -10.102656 26.170017 -2.788279 -4.768502 -5.267140 -2.811820 -3.236575 -4.764315 19.051240 -12.569269 -2.038963 -1.075326 6.212318 21.927792 5.068107 -9.858018 4.748509 5.347248 -0.283566 -3.567725 -10.584371 -1.701341 10.235016 8.379016 -14.202561 -14.402548 15.180353 -17.566576 -16.361852 7.397600 -28.454519 -30.208323 83.246953 -47.999643 -64.307372 4.194259 -1.774051 10.631728 -0.169229 3.720684 5.696256 5.071853 12.441682 -7.062428 61.039823 -3.419953 17.903981 -159.006543 71.322192 -122.044149 14.899986 1.727176 -15.914250 -0.596122 7.181895 5.821819 
0.191953 -0.018460 0.144524 176.867085 33.186629 -25.268828 2.083407 6.553678 4.727350 1.335165 -4.236336 2.432813 -4.392895 8.845295 2.452720 -2.047476 12.617061 -0.432948 -1.985416 -8.801095 25.885761 -3.540428 -3.427459 -4.623708 -2.243061 -3.672913 -4.379310 18.530247 -12.317860 -3.301034 -0.072037 5.578691 20.480514 4.827842 -8.977960 4.822979 5.224329 -0.437722 -3.710201 -8.980240 -4.391199 10.320377 7.512524 -12.409209 -15.058545 7.816021 -14.762372 -12.837068 0.637330 -24.206150 -28.669112 72.731822 -42.862099 -56.594152 1.596846 1.036006 13.663342 -0.909887 2.991481 3.587854 7.981346 11.183987 -5.940713 61.002394 -3.424815 18.570600 -161.314300 71.791377 -124.870279 16.279461 0.537676 -12.442150 -0.553429 7.513183 5.653085 
0.152266 -0.022767 0.154810 177.510526 32.490009 -24.347870 0.455319 6.604482 5.830753 0.546681 -4.678250 3.287890 -3.101857 10.117278 -0.259857 -0.760273 11.884269 -0.608202 -4.399107 -8.381748 26.281861 -3.722719 -2.417215 -3.274574 -0.442549 -4.092922 -4.238737 16.003917 -12.831368 -3.567644 0.068728 5.461070 18.021483 5.024807 -8.841793 5.717555 4.835443 -0.505556 -3.612839 -7.471170 -5.835259 10.083947 7.024294 -11.932971 -16.206910 3.587195 -11.423993 -9.021108 -7.061201 -19.007924 -18.327029 56.205686 -54.448184 -40.212737 -8.577155 2.760343 8.817384 -3.847083 2.657614 -0.445253 9.450480 8.845347 -5.373282 59.194107 -3.794782 19.449734 -165.157704 71.696502 -131.580452 19.609570 0.018500 -13.736242 1.919552 8.140592 2.451556 
0.117077 -0.027100 0.166115 176.744303 33.905881 -25.205450 -0.695274 5.760665 7.818793 0.316149 -5.676584 3.871601 -2.772679 11.504611 -2.535269 0.636653 8.998496 -0.735426 -6.089407 -8.457602 27.412582 -3.646256 -3.424451 -0.675215 1.580103 -2.980870 -3.928855 14.028132 -14.928411 -2.873069 -0.839745 5.896102 15.996655 5.445771 -9.434128 7.050394 4.398996 -0.439848 -3.998562 -8.493250 -5.557566 9.697101 7.035875 -13.925931 -16.198077 6.237025 -12.747256 -7.360456 -9.631156 -19.226523 -7.956204 63.049839 -75.893318 -38.282712 -16.047700 -2.487549 4.682966 -5.380098 3.997169 -1.588755 8.574999 8.798550 -4.653405 58.959427 -5.529213 18.854306 -164.735687 71.496054 -131.244402 23.661977 1.857940 -16.774451 2.336543 7.803179 0.525620 
0.091843 -0.030508 0.174184 175.037515 35.893288 -26.528385 -0.828986 5.189909 9.445918 0.126844 -7.341426 3.879027 -1.709961 11.547037 -3.759604 -0.880696 8.635018 -0.471347 -6.297065 -8.780148 27.192455 -3.866043 -4.273653 3.464012 2.504809 -3.525233 -3.039061 13.666602 -13.569093 -2.886434 -2.416718 5.603742 15.817688 5.438358 -10.329056 6.504690 4.136413 -1.051654 -3.885071 -10.799024 -4.349503 9.639682 6.627185 -15.511337 -14.361143 12.218135 -16.232543 -10.373613 -2.933824 -25.664507 -11.819420 112.218372 -75.062856 -84.806386 -10.322039 -4.867542 3.178224 -3.837034 4.952109 2.766973 6.861925 10.364546 -5.835590 60.330728 -6.230560 19.592289 -166.602434 72.132157 -131.280922 22.693160 1.901432 -15.344736 0.680647 7.613000 2.132496 
0.075703 -0.034828 0.177603 173.469451 33.203080 -27.159101 1.033109 6.918805 11.528026 0.515990 -7.432236 1.737495 -1.186542 11.294022 -3.829969 -2.647900 9.503856 0.124480 -6.240985 -8.929447 24.757903 -3.621275 -3.026326 8.167471 4.213922 -1.897444 -0.516431 14.408424 -11.548565 -5.485637 -3.299690 5.781938 16.578937 5.879650 -10.121031 5.230440 4.352132 -0.730965 -3.580348 -11.429023 -3.412819 11.221004 6.938700 -17.845803 -11.936715 17.715178 -17.810392 -15.417405 6.761717 -30.134376 -24.809714 88.832974 -61.528473 -66.140270 3.211744 -4.194683 10.750897 -3.134433 4.516258 4.599424 5.736629 11.751344 -6.985918 62.298358 -5.712743 20.019901 -165.635467 73.039415 -129.069630 15.600329 1.630225 -13.293109 0.751539 7.816603 3.048059 
0.060738 -0.035980 0.176096 172.639858 28.805288 -27.114682 2.927974 8.787345 12.307378 0.289699 -6.289522 1.327353 -0.653577 11.332357 -4.641862 -3.622315 11.267824 0.698013 -6.689573 -8.488880 21.179218 -2.751176 -1.028819 13.098684 5.752872 0.786511 1.658253 14.834186 -10.193288 -7.984712 -3.269794 5.602155 17.780481 6.510631 -9.557645 4.892535 4.741727 -0.499689 -3.746359 -9.315615 -2.740529 12.390061 7.621931 -18.329474 -11.340639 18.503829 -16.938192 -17.103607 12.024444 -27.928197 -33.832846 74.216741 -47.915862 -58.445085 3.072843 -1.144949 14.021848 -2.372852 3.832489 4.976033 6.221945 11.624882 -7.335071 63.526267 -4.247647 20.071464 -163.666834 73.261300 -126.958079 15.737409 0.743839 -12.487449 1.436983 8.191816 3.701735 
